<?xml version="1.0" encoding="utf-8"?>
<!-- Generator: Adobe Illustrator 24.1.2, SVG Export Plug-In . SVG Version: 6.00 Build 0)  -->
<svg version="1.1" id="Слой_1" xmlns="http://www.w3.org/2000/svg" xmlns:xlink="http://www.w3.org/1999/xlink" x="0px" y="0px"
	 viewBox="0 0 1080 1080" style="enable-background:new 0 0 1080 1080;" xml:space="preserve">
<style type="text/css">
	.st0{fill:#1C3A5B;}
</style>
<g>
	<g>
		<path class="st0" d="M389.3,449.7c0,0,2.9,17.7,18.3,26.6c15.4,8.9,28.2,0.2,28.2,0.2s1.1-15.4-14.3-24.3
			C406.1,443.3,389.3,449.7,389.3,449.7z"/>
		<path class="st0" d="M693.6,625.3c0,0-2.9-17.7-18.3-26.6c-15.4-8.9-28.2-0.2-28.2-0.2s-1.1,15.4,14.3,24.3
			C676.8,631.7,693.6,625.3,693.6,625.3z"/>
		<path class="st0" d="M365.7,522.6c0,0,10.1,14.8,27.8,16.4c17.7,1.6,25.6-11.7,25.6-11.7s-5.5-14.4-23.2-16
			C378.2,509.8,365.7,522.6,365.7,522.6z"/>
		<path class="st0" d="M715.8,553.2c0,0-10.1-14.8-27.8-16.4c-17.7-1.6-25.6,11.7-25.6,11.7s5.5,14.4,23.2,16
			C703.3,566.1,715.8,553.2,715.8,553.2z"/>
		<path class="st0" d="M375.2,598.7c0,0,15.4,9.2,32.1,3.1c16.7-6.1,18.3-21.4,18.3-21.4s-11.1-10.7-27.8-4.7
			C381.1,581.8,375.2,598.7,375.2,598.7z"/>
		<path class="st0" d="M705.4,478.5c0,0-15.4-9.2-32.1-3.1c-16.7,6.1-18.3,21.4-18.3,21.4s11.1,10.7,27.8,4.7
			C699.5,495.4,705.4,478.5,705.4,478.5z"/>
		<path class="st0" d="M415.9,663.7c0,0,17.8,1.8,30.4-10.8c12.6-12.6,7.5-27.2,7.5-27.2s-14.6-5.1-27.2,7.5
			C414.1,645.8,415.9,663.7,415.9,663.7z"/>
		<path class="st0" d="M664.4,415.2c0,0-17.8-1.8-30.4,10.8c-12.6,12.6-7.5,27.2-7.5,27.2s14.6,5.1,27.2-7.5
			C666.2,433,664.4,415.2,664.4,415.2z"/>
		<path class="st0" d="M480.3,705.3c0,0,16.9-5.9,23-22.6s-4.7-27.8-4.7-27.8s-15.3,1.6-21.4,18.3S480.3,705.3,480.3,705.3z"/>
		<path class="st0" d="M600.5,375.1c0,0-16.9,5.9-23,22.6c-6.1,16.7,4.7,27.8,4.7,27.8s15.3-1.6,21.4-18.3
			C609.6,390.5,600.5,375.1,600.5,375.1z"/>
		<path class="st0" d="M556.2,715.9c0,0,12.8-12.5,11.3-30.2c-1.6-17.7-16-23.2-16-23.2s-13.2,7.9-11.7,25.6
			C541.4,705.8,556.2,715.9,556.2,715.9z"/>
		<path class="st0" d="M525.6,365.8c0,0-12.8,12.5-11.3,30.2c1.6,17.7,16,23.2,16,23.2s13.2-7.9,11.7-25.6
			C540.4,375.9,525.6,365.8,525.6,365.8z"/>
		<path class="st0" d="M629.5,693.3c0,0,6.4-16.8-2.6-32.2c-8.9-15.4-24.3-14.3-24.3-14.3s-8.7,12.7,0.2,28.2
			C611.8,690.4,629.5,693.3,629.5,693.3z"/>
		<path class="st0" d="M453.8,389c0,0-6.4,16.8,2.6,32.2c8.9,15.4,24.3,14.3,24.3,14.3s8.7-12.7-0.2-28.2
			C471.5,391.9,453.8,389,453.8,389z"/>
	</g>
	<g>
		<path class="st0" d="M379.2,390.4c0,0-1.1,22.4,15.5,37.3c16.5,14.9,34.4,7.6,34.4,7.6s5.4-18.5-11.2-33.4
			C401.4,387,379.2,390.4,379.2,390.4z"/>
		<path class="st0" d="M705.6,684.3c0,0,1.1-22.4-15.5-37.3c-16.5-14.9-34.4-7.6-34.4-7.6s-5.4,18.5,11.2,33.4
			S705.6,684.3,705.6,684.3z"/>
		<path class="st0" d="M331.4,473.4c0,0,8.5,20.7,29.8,27.2c21.3,6.5,34.4-7.6,34.4-7.6s-2.9-19-24.2-25.6
			C350.1,461,331.4,473.4,331.4,473.4z"/>
		<path class="st0" d="M751.4,601.9c0,0-8.5-20.7-29.8-27.2c-21.3-6.5-34.4,7.6-34.4,7.6s2.9,19,24.2,25.6
			C732.8,614.3,751.4,601.9,751.4,601.9z"/>
		<path class="st0" d="M323.2,568.9c0,0,16.4,15.2,38.5,12.1c22-3.1,27.9-21.4,27.9-21.4s-10.7-16-32.8-12.9
			C334.8,549.8,323.2,568.9,323.2,568.9z"/>
		<path class="st0" d="M758.2,507.8c0,0-16.4-15.2-38.5-12.1c-22,3.1-27.9,21.4-27.9,21.4s10.7,16,32.8,12.9
			C746.6,527,758.2,507.8,758.2,507.8z"/>
		<path class="st0" d="M356.2,658.9c0,0,21.3,6.8,40-5.3c18.7-12.1,16.3-31.2,16.3-31.2s-16.5-10-35.2,2.1
			C358.6,636.7,356.2,658.9,356.2,658.9z"/>
		<path class="st0" d="M724.5,419.7c0,0-21.3-6.8-40,5.3c-18.7,12.1-16.3,31.2-16.3,31.2s16.5,10,35.2-2.1
			C722.1,442,724.5,419.7,724.5,419.7z"/>
		<path class="st0" d="M424,726.6c0,0,22.2-2.8,34-21.7c11.8-18.9,1.5-35.2,1.5-35.2s-19.2-2.1-31,16.8
			C416.8,705.4,424,726.6,424,726.6z"/>
		<path class="st0" d="M656.8,354.1c0,0-22.2,2.8-34,21.7c-11.8,18.9-1.5,35.2-1.5,35.2s19.2,2.1,31-16.8
			C664,375.3,656.8,354.1,656.8,354.1z"/>
		<path class="st0" d="M514.1,759.2c0,0,18.9-11.9,21.7-34c2.7-22.1-13.5-32.5-13.5-32.5s-18.2,6.2-21,28.3
			C498.6,743.1,514.1,759.2,514.1,759.2z"/>
		<path class="st0" d="M567.7,323.3c0,0-18.9,11.9-21.7,34c-2.7,22.1,13.5,32.5,13.5,32.5s18.2-6.2,21-28.3
			C583.2,339.5,567.7,323.3,567.7,323.3z"/>
		<path class="st0" d="M609.6,750.7c0,0,12.1-18.8,5.2-40c-6.9-21.2-26-23.8-26-23.8s-13.9,13.3-7,34.5
			C588.7,742.6,609.6,750.7,609.6,750.7z"/>
		<path class="st0" d="M473.9,333c0,0-12.1,18.8-5.2,40c6.9,21.2,26,23.8,26,23.8s13.9-13.3,7-34.5C494.8,341.1,473.9,333,473.9,333
			z"/>
	</g>
	<g>
		<path class="st0" d="M382.3,315.3c0,0-7.1,27.1,9.2,49.6c16.4,22.5,40.1,18.2,40.1,18.2s11.4-21.2-5-43.7
			C410.3,316.8,382.3,315.3,382.3,315.3z"/>
		<path class="st0" d="M705,759.4c0,0,7.1-27.1-9.2-49.6c-16.4-22.5-40.1-18.2-40.1-18.2s-11.4,21.2,5,43.7S705,759.4,705,759.4z"/>
		<path class="st0" d="M302.3,404.4c0,0,5,27.6,29.3,41c24.3,13.5,44-0.4,44-0.4s1.3-24.1-23-37.5
			C328.3,394,302.3,404.4,302.3,404.4z"/>
		<path class="st0" d="M782.5,670.6c0,0-5-27.6-29.3-41c-24.3-13.5-44,0.4-44,0.4s-1.3,24.1,23,37.5S782.5,670.6,782.5,670.6z"/>
		<path class="st0" d="M267.4,519c0,0,16.2,22.9,43.9,24.8c27.8,1.9,39.7-19,39.7-19s-8.9-22.4-36.7-24.3
			C286.6,498.6,267.4,519,267.4,519z"/>
		<path class="st0" d="M815.1,557.3c0,0-16.2-22.9-43.9-24.8c-27.8-1.9-39.7,19-39.7,19s8.9,22.4,36.7,24.3
			C795.9,577.7,815.1,557.3,815.1,557.3z"/>
		<path class="st0" d="M284.3,637.6c0,0,24.3,13.9,50.3,3.9c26-10,28-34,28-34s-17.6-16.5-43.5-6.5
			C293.1,611.1,284.3,637.6,284.3,637.6z"/>
		<path class="st0" d="M796.9,440.9c0,0-24.3-13.9-50.3-3.9c-26,10-28,34-28,34s17.6,16.5,43.5,6.5
			C788.1,467.5,796.9,440.9,796.9,440.9z"/>
		<path class="st0" d="M349.7,738c0,0,27.9,2.3,47.2-17.7c19.3-20,11-42.6,11-42.6s-22.9-7.5-42.2,12.5
			C346.4,710.2,349.7,738,349.7,738z"/>
		<path class="st0" d="M731.1,343.1c0,0-27.9-2.3-47.2,17.7c-19.3,20-11,42.6-11,42.6s22.9,7.5,42.2-12.5
			C734.4,370.9,731.1,343.1,731.1,343.1z"/>
		<path class="st0" d="M451.4,801.3c0,0,26.3-9.7,35.3-36c9.1-26.3-8-43.3-8-43.3s-23.9,2.9-33,29.2
			C436.7,777.5,451.4,801.3,451.4,801.3z"/>
		<path class="st0" d="M630.1,282.2c0,0-26.3,9.7-35.3,36c-9.1,26.3,8,43.3,8,43.3s23.9-2.9,33-29.2
			C644.9,306,630.1,282.2,630.1,282.2z"/>
		<path class="st0" d="M570.3,815.7c0,0,19.7-19.9,16.8-47.6c-2.9-27.7-25.6-35.8-25.6-35.8S541.1,745,544,772.7
			C546.9,800.4,570.3,815.7,570.3,815.7z"/>
		<path class="st0" d="M512.9,269.7c0,0-19.7,19.9-16.8,47.6c2.9,27.7,25.6,35.8,25.6,35.8s20.5-12.7,17.6-40.4
			C536.4,285.1,512.9,269.7,512.9,269.7z"/>
	</g>
	<g>
		<path class="st0" d="M405.6,224.2c0,0-15.8,31.3-1.6,63c14.2,31.8,44.2,32.7,44.2,32.7s19.4-23,5.3-54.8
			C439.4,233.4,405.6,224.2,405.6,224.2z"/>
		<path class="st0" d="M684.7,851.2c0,0,15.8-31.3,1.6-63c-14.2-31.8-44.2-32.7-44.2-32.7s-19.4,23-5.3,54.8
			C650.9,842,684.7,851.2,684.7,851.2z"/>
		<path class="st0" d="M284.6,312.5c0,0-1.1,35,25.2,57.8c26.3,22.8,53.9,11,53.9,11s7.9-29.1-18.4-51.9
			C319.1,306.5,284.6,312.5,284.6,312.5z"/>
		<path class="st0" d="M802.5,762.7c0,0,1.1-35-25.2-57.8c-26.3-22.8-53.9-11-53.9-11s-7.9,29.1,18.4,51.9
			C768,768.6,802.5,762.7,802.5,762.7z"/>
		<path class="st0" d="M212.2,443.5c0,0,13.8,32.2,47.3,41.8c33.4,9.6,53.5-12.9,53.5-12.9s-5.1-29.7-38.6-39.3
			C240.9,423.6,212.2,443.5,212.2,443.5z"/>
		<path class="st0" d="M871.9,632.7c0,0-13.8-32.2-47.3-41.8c-33.4-9.6-53.5,12.9-53.5,12.9s5.1,29.7,38.6,39.3
			C843.1,652.7,871.9,632.7,871.9,632.7z"/>
		<path class="st0" d="M202,592.9c0,0,26.1,23.3,60.5,17.9c34.4-5.4,43.1-34.3,43.1-34.3s-17.2-24.7-51.5-19.3
			C219.6,562.7,202,592.9,202,592.9z"/>
		<path class="st0" d="M879.8,485.6c0,0-26.1-23.3-60.5-17.9c-34.4,5.4-43.1,34.3-43.1,34.3s17.2,24.7,51.5,19.3
			C862.2,515.8,879.8,485.6,879.8,485.6z"/>
		<path class="st0" d="M255.9,732.7c0,0,33.5,10.1,62.4-9.4c28.8-19.5,24.5-49.3,24.5-49.3s-26-15.1-54.9,4.3
			C259.1,697.8,255.9,732.7,255.9,732.7z"/>
		<path class="st0" d="M824.8,348.9c0,0-33.5-10.1-62.4,9.4c-28.8,19.5-24.5,49.3-24.5,49.3s26,15.1,54.9-4.3
			C821.6,383.8,824.8,348.9,824.8,348.9z"/>
		<path class="st0" d="M363.8,836.5c0,0,34.6-5,52.6-34.8c17.9-29.8,1.4-55,1.4-55s-30-2.7-47.9,27.1
			C351.9,803.6,363.8,836.5,363.8,836.5z"/>
		<path class="st0" d="M717.2,248.3c0,0-34.6,5-52.6,34.8c-17.9,29.8-1.4,55-1.4,55s30,2.7,47.9-27.1
			C729,281.2,717.2,248.3,717.2,248.3z"/>
		<path class="st0" d="M505.4,885c0,0,29.3-19.2,32.9-53.8c3.6-34.6-22-50.5-22-50.5s-28.3,10.2-32,44.8
			C480.8,860.2,505.4,885,505.4,885z"/>
		<path class="st0" d="M577.2,202.5c0,0-29.3,19.2-32.9,53.8c-3.6,34.6,22,50.5,22,50.5s28.3-10.2,32-44.8
			C601.8,227.4,577.2,202.5,577.2,202.5z"/>
	</g>
	<g>
		<path class="st0" d="M457.7,119c0,0-27.4,34.1-18.4,76.7c9,42.5,45.6,51.5,45.6,51.5s29.7-23.1,20.7-65.6
			C496.6,139,457.7,119,457.7,119z"/>
		<path class="st0" d="M636.1,958.1c0,0,27.4-34.1,18.4-76.7c-9-42.5-45.6-51.5-45.6-51.5s-29.7,23.1-20.7,65.6
			C597.2,938.1,636.1,958.1,636.1,958.1z"/>
		<path class="st0" d="M286.8,195.4c0,0-10.4,42.5,15.8,77.2c26.2,34.7,63.1,27.4,63.1,27.4s17.2-33.5-9-68.2
			C330.6,197.1,286.8,195.4,286.8,195.4z"/>
		<path class="st0" d="M803.1,880.5c0,0,10.4-42.5-15.8-77.2c-26.2-34.7-63.1-27.4-63.1-27.4s-17.2,33.5,9,68.2
			C759.4,878.8,803.1,880.5,803.1,880.5z"/>
		<path class="st0" d="M164.3,336.9c0,0,8.5,42.9,46.9,63.3c38.4,20.4,68.8-1.8,68.8-1.8s1.4-37.6-36.9-58
			C204.6,319.9,164.3,336.9,164.3,336.9z"/>
		<path class="st0" d="M921.7,739.6c0,0-8.5-42.9-46.9-63.3c-38.4-20.4-68.8,1.8-68.8,1.8s-1.4,37.6,37,58
			C881.3,756.5,921.7,739.6,921.7,739.6z"/>
		<path class="st0" d="M113,516.9c0,0,25.9,35.3,69.3,37.6c43.4,2.3,61.6-30.7,61.6-30.7s-14.6-34.7-58-37
			C142.4,484.5,113,516.9,113,516.9z"/>
		<path class="st0" d="M969.6,561.8c0,0-25.9-35.3-69.3-37.6c-43.4-2.3-61.6,30.7-61.6,30.7s14.6,34.7,58,37
			C940.2,594.2,969.6,561.8,969.6,561.8z"/>
		<path class="st0" d="M142.5,701.7c0,0,38.4,21.1,78.7,4.8c40.3-16.3,42.8-53.8,42.8-53.8s-27.9-25.3-68.2-9
			C155.5,659.9,142.5,701.7,142.5,701.7z"/>
		<path class="st0" d="M937.9,380.4c0,0-38.4-21.1-78.7-4.8c-40.3,16.3-42.8,53.8-42.8,53.8s27.9,25.3,68.2,9
			C924.9,422.1,937.9,380.4,937.9,380.4z"/>
		<path class="st0" d="M247.5,856.7c0,0,43.7,2.9,73.3-28.9c29.7-31.8,16-66.9,16-66.9s-36-11.1-65.6,20.7
			C241.5,813.4,247.5,856.7,247.5,856.7z"/>
		<path class="st0" d="M832.5,229.3c0,0-43.7-2.9-73.3,28.9c-29.7,31.8-16,66.9-16,66.9s36,11.1,65.6-20.7
			C838.4,272.7,832.5,229.3,832.5,229.3z"/>
		<path class="st0" d="M408.1,952.9c0,0,40.8-15.8,54.2-57.2c13.4-41.4-13.7-67.4-13.7-67.4s-37.3,5.1-50.7,46.5
			C384.4,916.1,408.1,952.9,408.1,952.9z"/>
		<path class="st0" d="M673.1,137c0,0-40.8,15.8-54.2,57.2c-13.4,41.4,13.7,67.4,13.7,67.4s37.3-5.1,50.7-46.5
			C696.8,173.8,673.1,137,673.1,137z"/>
	</g>
	<g>
		<path class="st0" d="M548.8,3.9c0,0-42.4,34.6-42.4,89c0,54.4,42.4,74.8,42.4,74.8s42.4-20.5,42.4-74.8
			C591.2,38.4,548.8,3.9,548.8,3.9z"/>
		<path class="st0" d="M548.8,1076.1c0,0,42.4-34.6,42.4-89c0-54.4-42.4-74.8-42.4-74.8s-42.4,20.5-42.4,74.8
			C506.5,1041.6,548.8,1076.1,548.8,1076.1z"/>
		<path class="st0" d="M320,52.9c0,0-23.8,49.3-0.8,98.5c23,49.3,70,49.9,70,49.9s29.7-36.5,6.8-85.7C373,66.3,320,52.9,320,52.9z"
			/>
		<path class="st0" d="M773.2,1024.7c0,0,23.8-49.3,0.8-98.5c-23-49.3-70-49.9-70-49.9s-29.7,36.5-6.8,85.7
			C720.2,1011.2,773.2,1024.7,773.2,1024.7z"/>
		<path class="st0" d="M133.4,194c0,0-0.7,54.7,40.9,89.6c41.6,34.9,84.6,15.7,84.6,15.7s11.5-45.6-30.1-80.5
			C187.1,183.8,133.4,194,133.4,194z"/>
		<path class="st0" d="M954.8,883.2c0,0,0.7-54.7-40.9-89.6c-41.6-34.9-84.6-15.7-84.6-15.7s-11.5,45.6,30.1,80.5
			C901.1,893.4,954.8,883.2,954.8,883.2z"/>
		<path class="st0" d="M23.9,400.7c0,0,22.5,49.9,75,63.9c52.5,14.1,83.2-21.5,83.2-21.5s-8.8-46.2-61.3-60.3
			C68.2,368.8,23.9,400.7,23.9,400.7z"/>
		<path class="st0" d="M1059.6,678.3c0,0-22.5-49.9-75-63.9c-52.5-14.1-83.2,21.5-83.2,21.5s8.8,46.2,61.3,60.3
			C1015.2,710.2,1059.6,678.3,1059.6,678.3z"/>
		<path class="st0" d="M12,634.4c0,0,41.4,35.7,95,26.3c53.5-9.4,66.3-54.7,66.3-54.7s-27.5-38.2-81.1-28.7
			C38.7,586.7,12,634.4,12,634.4z"/>
		<path class="st0" d="M1068,448.2c0,0-41.4-35.7-95-26.3c-53.5,9.4-66.3,54.7-66.3,54.7s27.5,38.2,81.1,28.7
			C1041.3,495.9,1068,448.2,1068,448.2z"/>
		<path class="st0" d="M100,851.2c0,0,52.6,14.9,97.2-16.3c44.5-31.2,37-77.6,37-77.6s-41.1-23-85.6,8.2
			C104,796.7,100,851.2,100,851.2z"/>
		<path class="st0" d="M978.4,236.2c0,0-52.6-14.9-97.2,16.3c-44.5,31.2-37,77.6-37,77.6s41.1,23,85.6-8.2
			C974.3,290.7,978.4,236.2,978.4,236.2z"/>
		<path class="st0" d="M271.4,1010.5c0,0,54-8.8,81.2-55.9c27.2-47.1,0.7-86,0.7-86s-46.9-3.4-74.1,43.6
			C252,959.4,271.4,1010.5,271.4,1010.5z"/>
		<path class="st0" d="M807.5,81.9c0,0-54,8.8-81.2,55.9c-27.2,47.1-0.7,86-0.7,86s46.9,3.4,74.1-43.6
			C826.9,133,807.5,81.9,807.5,81.9z"/>
	</g>
</g>
</svg>
