<?xml version="1.0" encoding="utf-8"?>
<!-- Generator: Adobe Illustrator 24.1.2, SVG Export Plug-In . SVG Version: 6.00 Build 0)  -->
<svg version="1.1" id="Слой_1" xmlns="http://www.w3.org/2000/svg" xmlns:xlink="http://www.w3.org/1999/xlink" x="0px" y="0px"
	 viewBox="0 0 1128.9 239.2" style="enable-background:new 0 0 1128.9 239.2;" xml:space="preserve">
<style type="text/css">
	.st0{fill:#1C3A5B;}
</style>
<g>
	<path class="st0" d="M90.6,23.1L89.2,37l-23.3,3.4l16.4,125.5L86,201l13.7-35.1l56.9-125.5L133.3,37l1.2-13.9h68.3L200.6,37
		L181,40.2L90.6,234.9l-34.3,0.5l-31.7-195L5.4,36.8l1.7-13.7C7.1,23.1,90.6,23.1,90.6,23.1z"/>
	<path class="st0" d="M231.8,208.5c0,4.6,1.6,6.8,4.8,6.8c1.7,0,3.6-0.5,5.7-1.7c2.1-1.2,4.7-3,7.9-5.7l3.6,8.8
		c-3.3,4.3-7.9,8.7-14.3,13s-14,6.5-23,6.5c-7.4,0-13.1-1.4-17.3-4.4s-6.2-6.9-6.2-12.1l0.3-2.9c1.2-9.8,4.9-38.4,11.6-85.5
		l4.6-32.9l-16.6-7.9l2-11.1l48.8-6.8l6.8,3.1l-18.1,129.1C232,206.2,231.8,207.2,231.8,208.5z M222.1,40c-3.6-3.9-5.5-8.3-5.5-13.4
		c0-7,2.3-12.9,6.9-17.6c4.7-4.7,10.5-7,17.7-7c5.9,0,10.5,1.8,13.9,5.5c3.4,3.6,5.1,8.1,5.1,13.1c0,7.2-2.2,13.1-6.5,17.9
		c-4.3,4.8-10.5,7.3-18.5,7.3C230.1,45.8,225.8,43.9,222.1,40z"/>
	<path class="st0" d="M321.3,201.5c0,4.3,0.8,7.4,2.6,9.2c1.7,1.8,4.7,2.7,8.8,2.7c3.8,0,8.1-0.9,12.9-2.7s8.8-4,12.1-6.6l3.1,10.5
		c-4.9,5.5-11.8,10.5-20.9,15c-9.1,4.6-19.2,6.8-30.6,6.8c-7.9,0-14.2-2.1-18.9-6.1c-4.7-4-6.9-10.5-6.9-19.4
		c0-3.8,0.9-12.6,2.9-26.7l12-87.8h-17l3.1-13.5l17-6c5.7-5.3,12.4-18.3,20.2-39h21.2L338,76.4h33.7l-2.9,20.2h-33.9l-11.6,85.3
		C321.9,192.7,321.3,199.3,321.3,201.5z"/>
	<path class="st0" d="M501.3,208c0,4.9,1.8,7.4,5.7,7.4c3,0,7.3-2.2,12.7-6.8l3.9,8.8c-2.5,3.8-6.9,7.9-13.1,12.4
		c-6.4,4.4-13.7,6.6-22,6.6c-6.4,0-11.6-1.4-15.3-4.3c-3.8-2.9-5.7-7.2-6-13l0.5-4.8c-5.3,6.2-11.7,11.4-19.2,15.7s-15.9,6.4-25,6.4
		c-15.9,0-27.7-5.5-35.5-16.3s-11.7-25.1-11.7-42.6c0-17.4,3.6-34.1,10.9-50.1s17.9-29.1,31.9-39.4c14-10,30.6-15.2,49.9-15.2
		c4.9,0,10.3,0.5,16,1.7s10.8,2.5,15.2,3.9l19.5-5.7l-18.1,132C501.5,205.4,501.3,206.6,501.3,208z M466,90.2
		c-11.3,0-20.8,4.3-28.3,12.9s-13.1,19.4-16.5,32.5S416,162,416,175.4c0,12.5,1.8,22.1,5.7,29c3.8,6.9,9.4,10.3,16.6,10.3
		c4.7,0,9.5-1.6,14.3-4.8c4.8-3.3,9.1-7,12.9-11.3l14.4-105.8C476.2,91.1,471.7,90.2,466,90.2z"/>
	<path class="st0" d="M586,208.3c0,4.7,1.7,7,5.1,7c1.7,0,3.5-0.5,5.5-1.4s4.7-3,8.1-6l3.6,8.8c-3,4.3-7.4,8.7-13.3,13
		s-13.4,6.5-22.6,6.5c-7.2,0-13-1.4-17.6-4.4s-6.9-7.5-7-13.8c0-0.8,0.4-4.2,1.2-10.1l24.7-180.7l-17.8-5.7l2.6-10.5l48.1-5.7
		l6.5,3.6L586.3,205C586.1,205.9,586,207,586,208.3z"/>
	<path class="st0" d="M678.5,166.4c-2,14.7-2.9,24.2-2.9,28.3c0,7.5,1.3,13,3.9,16.1c2.6,3.3,6.6,4.8,11.8,4.8c6,0,12.1-2,17.9-5.7
		c6-3.8,11.1-8.3,15.2-13.5l16.4-122.3h37.3l-17.8,131c-0.4,3.4-0.1,6,0.9,7.7c0.9,1.7,2.3,2.6,4.3,2.6c1.7,0,3.5-0.5,5.3-1.6
		c2-1,4.6-3,7.9-5.9l3.9,8.8c-2.5,3.9-7,8.2-13.5,12.7c-6.6,4.6-14.2,6.8-22.6,6.8c-6.6,0-11.7-1.4-15.2-4.3
		c-3.5-2.9-5.5-6.6-5.9-11.6l-0.3-3.4c0-1.6,0.3-3.4,0.5-5.7l-0.5-0.3c-13.9,16.8-30.4,25.2-49.3,25.2c-10.5,0-19.5-2.9-26.9-8.6
		c-7.4-5.7-11.2-15-11.3-27.6c0-7.4,1.3-20.7,4-39.9c0.8-4.7,1.2-7.9,1.4-9.6l7.7-51.5l-16.4-9.6l2.2-11.6l47.1-4.8l6.5,3.1
		l-9.6,75.5C679.8,158.7,679.2,163.5,678.5,166.4z"/>
	<path class="st0" d="M818.8,97.4c-1.6-2-3.4-2.9-5.6-2.9c-4.7,0-8.7,1.4-12.2,4.3l-4.8-9.9c1.2-1.6,3.4-3.5,6.8-6.1
		c3.4-2.6,7.7-4.8,13-6.8s11.2-3,17.6-3c6.8,0,12.4,1.3,16.5,3.8c4.3,2.6,6.9,6.1,8.1,10.7l11.8,43.9l36.5-57.2h36l-61.8,78.7
		L903,199c1.3,3.4,3.1,6.5,5.5,9.5c2.3,3,4.7,4.4,6.9,4.4c3.9,0,8.7-2.2,14.2-6.8l5.7,9.9c-1.2,2-3.5,4.4-7,7.7
		c-3.6,3.3-8.3,6.1-14.3,8.8c-6,2.6-12.6,3.9-19.9,3.9c-6.2,0-11.2-1.3-14.7-3.8c-3.6-2.6-6.2-6.1-7.9-10.9l-13.7-47.1l-38,58.9
		h-37.1l64-80.1L823.8,105C822,101.8,820.5,99.2,818.8,97.4z"/>
	<path class="st0" d="M1041.6,227c-11.1,6.8-23.8,10.1-38.4,10.1c-13.5,0-24.8-3-33.5-8.7c-8.8-5.9-15.2-13.5-19.1-22.9
		c-3.9-9.5-6-19.8-6-30.8c0-18.9,3.8-36.1,11.4-51.6c7.7-15.6,18.1-28,31.3-36.9c13.3-9.1,28-13.7,44.2-13.7
		c14.6,0,25.4,3.4,32.4,10s10.7,15.5,10.7,26.1c0,13.7-4.9,25-14.7,33.9c-9.9,9.1-21.6,15.9-35.4,20.3s-26.8,6.9-39.1,7.3
		c-0.4,13.7,1.8,24.6,6.6,32.9s12.1,12.5,22,12.5c16.3,0,30.9-7.5,44.2-22.6l7.4,12.5C1060.7,212.9,1052.7,220.2,1041.6,227z
		 M996.8,110.1c-6.4,13.4-10.1,28.3-11.3,44.7c7.4-0.4,15.2-2.3,23.4-6c8.2-3.6,15.1-8.6,20.7-15.2c5.6-6.5,8.3-14,8.3-22.5
		c0-6.8-1.3-12.1-3.8-15.7c-2.6-3.6-6.2-5.5-10.9-5.5C1012,90,1003.1,96.7,996.8,110.1z"/>
</g>
<g>
	<g>
		<path class="st0" d="M1097.9,72.7c-12.9,0-23.3-10.5-23.3-23.3s10.5-23.3,23.3-23.3s23.3,10.5,23.3,23.3S1110.8,72.7,1097.9,72.7z
			 M1097.9,29.6c-10.9,0-19.8,8.9-19.8,19.8s8.9,19.8,19.8,19.8s19.8-8.9,19.8-19.8S1108.8,29.6,1097.9,29.6z"/>
	</g>
	<g>
		<path class="st0" d="M1107.4,62.5h-3.5l-4.9-11.4h-7.5v11.4h-3.1V36.2h10.4c2.8,0,4.9,0.8,6.3,2.3c1.4,1.5,2,3.2,2,5
			c0,1.4-0.4,2.7-1.1,4c-0.8,1.3-2,2.2-3.8,2.8L1107.4,62.5z M1091.5,48.5h6.9c1.8,0,3.2-0.5,4.1-1.4c0.9-1,1.3-2.1,1.3-3.5
			c0-1.4-0.5-2.5-1.4-3.2c-0.9-0.8-2.1-1.2-3.6-1.2h-7.3V48.5z"/>
	</g>
</g>
</svg>
