<?xml version="1.0" encoding="utf-8"?>
<!-- Generator: Adobe Illustrator 24.1.2, SVG Export Plug-In . SVG Version: 6.00 Build 0)  -->
<svg version="1.1" id="Слой_1" xmlns="http://www.w3.org/2000/svg" xmlns:xlink="http://www.w3.org/1999/xlink" x="0px" y="0px"
	 viewBox="0 0 1080 1080" style="enable-background:new 0 0 1080 1080;" xml:space="preserve">
<style type="text/css">
	.st0{fill:#1D1D1B;}
</style>
<g>
	<g>
		<path class="st0" d="M504.4,1080V670.4L311.8,513.4L568.5,0v417.2L768.3,567L504.4,1080z M325.6,510.5l189.8,154.7v369.4
			l238.9-464.3L557.5,422.7v-376L325.6,510.5z"/>
	</g>
	<g>
		<g>
			
				<rect x="394.7" y="101.2" transform="matrix(0.9397 -0.342 0.342 0.9397 -29.2993 146.3057)" class="st0" width="11" height="110.1"/>
		</g>
		<g>
			
				<rect x="271.8" y="172.1" transform="matrix(0.766 -0.6428 0.6428 0.766 -81.1716 231.3922)" class="st0" width="11" height="110.1"/>
		</g>
		<g>
			<rect x="180.5" y="280.9" transform="matrix(0.5 -0.866 0.866 0.5 -197.9084 329.0916)" class="st0" width="11" height="110.1"/>
		</g>
		<g>
			
				<rect x="132" y="414.3" transform="matrix(0.1736 -0.9848 0.9848 0.1736 -348.5685 523.2373)" class="st0" width="11" height="110.1"/>
		</g>
		<g>
			
				<rect x="82.4" y="605.8" transform="matrix(0.9848 -0.1736 0.1736 0.9848 -104.0142 33.1455)" class="st0" width="110.1" height="11"/>
		</g>
		<g>
			
				<rect x="131" y="739.1" transform="matrix(0.8661 -0.4999 0.4999 0.8661 -347.3466 192.7378)" class="st0" width="110.1" height="11"/>
		</g>
		<g>
			
				<rect x="222.2" y="847.9" transform="matrix(0.6426 -0.7662 0.7662 0.6426 -554.7482 517.4226)" class="st0" width="110.1" height="11"/>
		</g>
		<g>
			
				<rect x="345.2" y="918.8" transform="matrix(0.3418 -0.9398 0.9398 0.3418 -605.2652 984.4968)" class="st0" width="110.1" height="11"/>
		</g>
		<g>
			
				<rect x="674.3" y="869.3" transform="matrix(0.9397 -0.342 0.342 0.9397 -275.1489 288.2414)" class="st0" width="11" height="110.1"/>
		</g>
		<g>
			
				<rect x="797.2" y="798.3" transform="matrix(0.766 -0.6428 0.6428 0.766 -360.744 715.6177)" class="st0" width="11" height="110.1"/>
		</g>
		<g>
			
				<rect x="888.4" y="689.6" transform="matrix(0.5 -0.866 0.866 0.5 -197.9095 1146.5022)" class="st0" width="11" height="110.1"/>
		</g>
		<g>
			
				<rect x="937" y="556.2" transform="matrix(0.1737 -0.9848 0.9848 0.1737 176.849 1433.2942)" class="st0" width="11" height="110.1"/>
		</g>
		<g>
			
				<rect x="887.4" y="463.8" transform="matrix(0.9848 -0.1738 0.1738 0.9848 -67.2283 170.9623)" class="st0" width="110.1" height="11"/>
		</g>
		<g>
			<rect x="838.9" y="330.4" transform="matrix(0.866 -0.5 0.5 0.866 -48.1984 492.0104)" class="st0" width="110.1" height="11"/>
		</g>
		<g>
			
				<rect x="747.7" y="221.7" transform="matrix(0.6428 -0.7661 0.7661 0.6428 112.6983 696.0856)" class="st0" width="110.1" height="11"/>
		</g>
		<g>
			
				<rect x="624.7" y="150.7" transform="matrix(0.3421 -0.9397 0.9397 0.3421 300.415 741.5504)" class="st0" width="110.1" height="11"/>
		</g>
	</g>
</g>
</svg>
