<?xml version="1.0" encoding="utf-8"?>
<!-- Generator: Adobe Illustrator 24.1.2, SVG Export Plug-In . SVG Version: 6.00 Build 0)  -->
<svg version="1.1" id="Слой_1" xmlns="http://www.w3.org/2000/svg" xmlns:xlink="http://www.w3.org/1999/xlink" x="0px" y="0px"
	 viewBox="0 0 1080 1080" style="enable-background:new 0 0 1080 1080;" xml:space="preserve">
<g>
	<g>
		<path d="M167.2,258.3v-13.5c-26.2,26.9-49,57.2-67.6,90.1h10.8c16.1-27.6,35.2-53.3,56.9-76.6H167.2z M483.5,110.9
			c-82.5,0-159.9,22.9-226.1,62.5v10.9c65.8-40.5,143.2-64.1,226.1-64.1c238.1,0,431.9,193.8,431.9,431.9
			c0,75.5-19.5,146.4-53.6,208.2h10.7c33.3-62,52.2-132.9,52.2-208.2C924.7,308.7,726.7,110.9,483.5,110.9z M483.5,984.1
			c-238.1,0-431.9-193.8-431.9-431.9c0-44.1,6.7-86.8,19-127H61c-12.1,40.3-18.7,82.8-18.7,127c0,243.4,198,441.2,441.2,441.2
			c129.8,0,246.6-56.3,327.4-145.8h-12.8C719.3,931.5,607.5,984,483.5,984L483.5,984.1z"/>
	</g>
	<g>
		<g>
			<rect x="256.3" y="86.6" width="9.9" height="522.5"/>
		</g>
		<g>
			<rect y="342.9" width="522.5" height="9.9"/>
		</g>
	</g>
	<g>
		<rect x="574.3" y="755.3" width="505.8" height="9.9"/>
	</g>
</g>
</svg>
