<?xml version="1.0" encoding="utf-8"?>
<!-- Generator: Adobe Illustrator 24.1.2, SVG Export Plug-In . SVG Version: 6.00 Build 0)  -->
<svg version="1.1" id="Слой_1" xmlns="http://www.w3.org/2000/svg" xmlns:xlink="http://www.w3.org/1999/xlink" x="0px" y="0px"
	 viewBox="0 0 1080 1080" style="enable-background:new 0 0 1080 1080;" xml:space="preserve">
<g>
	<g>
		<path d="M540,902.5c-167.9,0-304.6-157.6-304.6-351.4c0-11.9,1.1-24.4,3.4-38.4c32.7-195.2,286-494.8,296.7-507.5L540,0l4.4,5.2
			c1.4,1.7,141.5,167,229,330.8c47.1,88.1,71.1,160.4,71.1,215.1v0.1C844.5,745,707.9,902.5,540,902.5z M540,18.1
			c-34.6,41.7-259.8,318.5-289.7,496.6c-2.2,13.4-3.3,25.3-3.3,36.5c0,187.3,131.4,339.7,292.9,339.7
			c161.5,0,292.9-152.4,292.9-339.6c0-52.7-23.5-123.3-69.7-209.7C685,195.2,564.5,47.6,540,18.1z"/>
	</g>
	<g>
		<rect x="534.2" y="245.4" width="11.6" height="834.6"/>
	</g>
	<g>
		<polygon points="540,774 248.4,482.3 256.6,474.1 540,757.5 823.4,474.1 831.6,482.3 		"/>
	</g>
	<g>
		<polygon points="540,519.3 327.4,306.8 335.7,298.5 540,502.9 744.2,298.7 752.4,306.9 		"/>
	</g>
</g>
</svg>
