<?xml version="1.0" encoding="utf-8"?>
<!-- Generator: Adobe Illustrator 24.1.2, SVG Export Plug-In . SVG Version: 6.00 Build 0)  -->
<svg version="1.1" id="Слой_1" xmlns="http://www.w3.org/2000/svg" xmlns:xlink="http://www.w3.org/1999/xlink" x="0px" y="0px"
	 viewBox="0 0 1080 1080" style="enable-background:new 0 0 1080 1080;" xml:space="preserve">
<g>
	<g>
		<path d="M1066.6,521.2l-0.5-1.7c0,0-0.1-0.2-0.2-0.2c-1-1-1.6-1.4-2.2-1.7L823.5,407v-32.6l-12.8,12.8v21.1l-39,18l-26,26
			l72.6-33.5l226.8,104.5L815.3,629.1l-168.8-77.7l-9.5,9.5l172,79.2v279.3L578.5,812.9V619.4l-12.8,12.8v180.7L335.3,919.1v-56.4
			l-12.8,12.8v43.6l-29.9-13.8L283,915l43.4,20c1.7,0.7,3.7,0.7,5.3,0l240.4-110.5l240.5,110.9c1.7,0.7,3.6,0.7,5.3,0l245.4-113.5
			c2.2-1,3.7-3.3,3.7-5.8V523.3c0-0.6-0.1-1.4-0.5-2.1L1066.6,521.2z M1054.1,812.4L821.9,919.1V640.4l232.2-106.9V812.4z
			 M90.3,533.2l232.2,107.1v127l12.8-12.8V640.1l212-97.8l31.1-31.1v-275l232.2-106.7V279l12.8-12.8v-147c0,0-0.1-1.2-0.5-2
			l-1.2-2.6c0,0-1-0.9-1.7-1.2L574.7,0.6c-1.7-0.7-3.6-0.7-5.3,0l-245,112.9c0,0-1.1,0.7-1.6,1.1v1.2l-1.2,1.4
			c-0.2,0.7-0.5,1.4-0.5,2.1v287.4L80.9,517.1c0,0-1.1,0.6-1.6,1.2c-0.4,0.4-0.6,0.7-0.9,1l-0.2,1.5c-0.2,0.7-0.4,1.5-0.5,2.2v292.7
			c0,2.5,1.5,4.8,3.7,5.8l127.8,58.9l9.7-9.7L90.3,811.6V532.8L90.3,533.2z M572.2,13.6L802,119.4l-229.8,106l-229.8-106
			C342.4,119.4,572.2,13.6,572.2,13.6z M333.5,129.4l232.2,106.9v278.8L333.5,408.1C333.5,408.1,333.5,129.4,333.5,129.4z
			 M326,418.7l229.8,106L328.9,629L99.2,523.1L326,418.7z"/>
	</g>
	<g>
		<rect x="-140.7" y="689.5" transform="matrix(0.7071 -0.7071 0.7071 0.7071 -375.0735 484.8929)" width="1076.9" height="11.5"/>
	</g>
	<g>
		<rect x="722.2" y="172.8" transform="matrix(0.7071 -0.7071 0.7071 0.7071 141.5557 698.8874)" width="384.3" height="11.5"/>
	</g>
</g>
</svg>
