<?xml version="1.0" encoding="utf-8"?>
<!-- Generator: Adobe Illustrator 24.1.2, SVG Export Plug-In . SVG Version: 6.00 Build 0)  -->
<svg version="1.1" id="Слой_1" xmlns="http://www.w3.org/2000/svg" xmlns:xlink="http://www.w3.org/1999/xlink" x="0px" y="0px"
	 viewBox="0 0 1080 1080" style="enable-background:new 0 0 1080 1080;" xml:space="preserve">
<path d="M298.9,303.2c47.8,27,92.1,56,100.3,111.7c4.9,33.2-3.3,68.3-5.8,102.5c-1.8,24.3-8,49-5.4,72.7
	c6.4,56.7,60.6,89.5,115.5,73.1c63.5-19.1,100.2-84,80-152.9c-12.9-43.8-34.9-85.1-53.9-127c-13.3-29.3-29.2-57.5-42.6-86.8
	c-29.9-65.3-23.5-128.8,11.9-190.2C521.9,66.3,552.2,32.4,588,0c4.5,21.3,8.3,41,12.7,60.6c25.3,113.2,83.2,209,158.6,295.4
	c58.9,67.5,105.9,141.8,128.7,229.4c34.4,132.1,21.7,256.8-70.7,362.7c-99.9,114.5-228.6,157.1-375.2,117.4
	c-144.4-39.1-229-141.3-260.9-286.6c-13.3-60.5-5.8-120,18.6-176.5c14.9-34.6,31.6-69,51.9-100.6c36-56.1,51.3-116.4,47.3-182.4
	C298.7,315,298.9,310.5,298.9,303.2z M316.2,334.1c-0.3,5.7-0.6,9.5-0.6,13.2c-1.2,59.4-18.5,113.3-50.6,163.6
	c-19.1,29.8-34.9,62.1-49.2,94.6c-23.7,53.7-32,110.6-19.5,168.3c29,134.4,105.8,231.1,238.2,272.8c133.8,42.2,254.5,8.2,353-90
	c100.8-100.4,120.3-224.2,87.3-358.7C853.4,511,807.7,437.3,750,370c-57.8-67.5-110.6-138.6-139.8-223.9
	c-12.5-36.5-22.6-73.7-34.1-111.9c-26.9,25.9-49.4,54.6-67,87C479.6,175.5,475,231,501,288c8.3,18.2,17,36.2,25.4,54.4
	c23.8,51.4,51.9,101.3,70.2,154.6c24.4,71.4-2.1,137.1-61.5,170.2c-38.2,21.3-77.7,23.6-115.9,0.2c-38.8-23.8-52.8-60.5-47.9-104.5
	c3.1-27.6,7.9-55.1,12.7-82.4C395.4,414.1,373.1,364.1,316.2,334.1z"/>
</svg>
